<?xml version="1.0" encoding="UTF-8" standalone="no"?>
<!DOCTYPE svg PUBLIC "-//W3C//DTD SVG 1.1//EN" "http://www.w3.org/Graphics/SVG/1.1/DTD/svg11.dtd">
<svg width="100%" height="100%" viewBox="0 0 1000 980" version="1.1" xmlns="http://www.w3.org/2000/svg" xmlns:xlink="http://www.w3.org/1999/xlink" xml:space="preserve" xmlns:serif="http://www.serif.com/" style="fill-rule:evenodd;clip-rule:evenodd;stroke-linejoin:round;stroke-miterlimit:2;">
    <g transform="matrix(1,0,0,1,-500,-200)">
        <g id="Handstamp-Logo" serif:id="Handstamp Logo">
            <g id="Body-Right" serif:id="Body Right" transform="matrix(-1.818182,0,0,1.818182,2000,-527.272727)">
                <path d="M550,400L550,895C550,895 337.235,895 286,895C279.925,895 275,890.075 275,884C275,861.538 275,812.5 275,812.5C275,805.207 277.897,798.212 283.055,793.055C288.212,787.897 295.207,785 302.5,785L382.44,785C396.015,784.826 460.442,781.781 492.972,740.42C518.158,708.399 546.054,661.514 472.511,588.073C452.433,568.145 440,540.524 440,510C440,449.249 446.349,400 550,400Z"/>
            </g>
            <g id="Body-Left" serif:id="Body Left" transform="matrix(1.818182,0,0,1.818182,0,-527.272727)">
                <path d="M550,400L550,895C550,895 337.235,895 286,895C279.925,895 275,890.075 275,884C275,861.538 275,812.5 275,812.5C275,805.207 277.897,798.212 283.055,793.055C288.212,787.897 295.207,785 302.5,785L382.44,785C396.015,784.826 460.442,781.781 492.972,740.42C518.158,708.399 546.054,661.514 472.511,588.073C452.433,568.145 440,540.524 440,510C440,449.249 446.349,400 550,400Z"/>
            </g>
            <g id="Base" transform="matrix(0.92,0,0,0.893731,80,138.620066)">
                <path d="M1489.122,1120.449C1492.007,1120.449 1494.774,1121.628 1496.814,1123.728C1498.854,1125.828 1500,1128.676 1500,1131.646L1500,1154.008C1500,1156.977 1498.854,1159.825 1496.814,1161.925C1494.774,1164.025 1492.007,1165.205 1489.122,1165.205L510.878,1165.205C507.993,1165.205 505.226,1164.025 503.186,1161.925C501.146,1159.825 500,1156.977 500,1154.008L500,1131.646C500,1128.676 501.146,1125.828 503.186,1123.728C505.226,1121.628 507.993,1120.449 510.878,1120.449L1489.122,1120.449Z"/>
            </g>
        </g>
    </g>
</svg>
